<?xml version="1.0" encoding="UTF-8"?>
<svg id="Capa_1" data-name="Capa 1" xmlns="http://www.w3.org/2000/svg" version="1.1" viewBox="0 0 1920 1080">
  <defs>
    <style>
      .cls-1 {
        fill: #006837;
        stroke: #000;
        stroke-miterlimit: 10;
      }

      .cls-2 {
        fill: #c5c9c7;
        stroke-width: 0px;
      }
    </style>
  </defs>
  <path class="cls-1" d="M1919.5,665.5s6-32-162-57c0,0,3-213-97-224-.89-.1,12.89-46.12-122-67-84-13-272,265-272,265,0,0-254.31-399.01-333-362-202,95-184,114-184,114,0,0-53.45-155.32-149-239-145-127-165.17,127.35-203,116-50-15-148,78-148,78-100-1-224,289-254,359l1,80,1,350,958,2,969,1-5-100v-316Z"/>
  <path class="cls-2" d="M441.93,140.43l187.96-10.99s-44.86-78.54-107.62-71.24-80.34,82.23-80.34,82.23Z"/>
</svg>