<?xml version="1.0" encoding="UTF-8"?>
<svg id="Capa_1" data-name="Capa 1" xmlns="http://www.w3.org/2000/svg" version="1.1" xmlns:xlink="http://www.w3.org/1999/xlink" viewBox="0 0 1366 768">
  <defs>
    <style>
      .cls-1 {
        fill: #a5a5a5;
        stroke-width: 0px;
      }

      .cls-2 {
        fill: url(#Degradado_sin_nombre_249-2);
      }

      .cls-2, .cls-3, .cls-4, .cls-5 {
        stroke: #000;
        stroke-miterlimit: 10;
        stroke-width: 2px;
      }

      .cls-3 {
        fill: url(#Degradado_sin_nombre_245);
      }

      .cls-4 {
        fill: url(#Degradado_sin_nombre_249);
      }

      .cls-5 {
        fill: url(#Degradado_sin_nombre_250);
      }
    </style>
    <linearGradient id="Degradado_sin_nombre_245" data-name="Degradado sin nombre 245" x1="129.5" y1="394.5" x2="1151.5" y2="394.5" gradientUnits="userSpaceOnUse">
      <stop offset=".41" stop-color="#00b3ff"/>
      <stop offset="1" stop-color="#fff"/>
    </linearGradient>
    <linearGradient id="Degradado_sin_nombre_250" data-name="Degradado sin nombre 250" x1="756.5" y1="689.61" x2="786.62" y2="689.61" gradientUnits="userSpaceOnUse">
      <stop offset=".33" stop-color="#00b3ff"/>
      <stop offset="1" stop-color="#fff"/>
    </linearGradient>
    <linearGradient id="Degradado_sin_nombre_249" data-name="Degradado sin nombre 249" x1="1044.5" y1="283" x2="1075.06" y2="283" gradientUnits="userSpaceOnUse">
      <stop offset=".17" stop-color="#00b3ff"/>
      <stop offset="1" stop-color="#fff"/>
    </linearGradient>
    <linearGradient id="Degradado_sin_nombre_249-2" data-name="Degradado sin nombre 249" x1="1124.5" y1="229.25" x2="1200.02" y2="229.25" xlink:href="#Degradado_sin_nombre_249"/>
  </defs>
  <g>
    <path class="cls-1" d="M1050.92,319.29c.38-4.55.58-9.14.58-13.79,0-63.45-35.82-118.53-88.34-146.13-14.42-26.73-42.44-44.87-74.66-44.87-23.43,0-44.65,9.6-60.03,25.12.01-.37.03-.74.03-1.12,0-22.09-17.91-40-40-40s-40,17.91-40,40c0,1.03.05,2.04.13,3.05-30.18-33.2-73.72-54.05-122.13-54.05-73.48,0-135.73,48.04-157.09,114.42-14.54-13.88-34.22-22.42-55.91-22.42-40.3,0-73.72,29.44-79.95,67.99-5.93-.65-11.95-.99-18.05-.99-91.13,0-165,73.87-165,165,0,66.49,39.34,123.79,96,149.91,0,.03,0,.06,0,.09,0,91.13,73.87,165,165,165,47.03,0,89.46-19.68,119.52-51.24,30.26,36.78,76.13,60.24,127.48,60.24,56.69,0,106.69-28.59,136.4-72.13,13.59,25.65,40.55,43.13,71.6,43.13,42.5,0,77.33-32.74,80.71-74.37,18.68,7.34,39.01,11.37,60.29,11.37,91.13,0,165-73.87,165-165,0-76.1-51.52-140.15-121.58-159.21Z"/>
    <path class="cls-1" d="M792.5,693.5c-6.69,4.89-15,6.72-15,15s6.72,15,15,15,14.62-6.72,15-15c.41-8.92.71-26.49-15-15Z"/>
    <path class="cls-1" d="M1080.5,317.5c8.28,0,12.62-7.07,15-15,3-10-6.72-20-15-20s-15,11.72-15,20,6.72,15,15,15Z"/>
  </g>
  <g>
    <path class="cls-3" d="M1029.92,302.29c.38-4.55.58-9.14.58-13.79,0-63.45-35.82-118.53-88.34-146.13-14.42-26.73-42.44-44.87-74.66-44.87-23.43,0-44.65,9.6-60.03,25.12.01-.37.03-.74.03-1.12,0-22.09-17.91-40-40-40s-40,17.91-40,40c0,1.03.05,2.04.13,3.05-30.18-33.2-73.72-54.05-122.13-54.05-73.48,0-135.73,48.04-157.09,114.42-14.54-13.88-34.22-22.42-55.91-22.42-40.3,0-73.72,29.44-79.95,67.99-5.93-.65-11.95-.99-18.05-.99-91.13,0-165,73.87-165,165,0,66.49,39.34,123.79,96,149.91,0,.03,0,.06,0,.09,0,91.13,73.87,165,165,165,47.03,0,89.46-19.68,119.52-51.24,30.26,36.78,76.13,60.24,127.48,60.24,56.69,0,106.69-28.59,136.4-72.13,13.59,25.65,40.55,43.13,71.6,43.13,42.5,0,77.33-32.74,80.71-74.37,18.68,7.34,39.01,11.37,60.29,11.37,91.13,0,165-73.87,165-165,0-76.1-51.52-140.15-121.58-159.21Z"/>
    <path class="cls-5" d="M771.5,676.5c-6.69,4.89-15,6.72-15,15s6.72,15,15,15,14.62-6.72,15-15c.41-8.92.71-26.49-15-15Z"/>
    <path class="cls-4" d="M1059.5,300.5c8.28,0,12.62-7.07,15-15,3-10-6.72-20-15-20s-15,11.72-15,20,6.72,15,15,15Z"/>
    <path class="cls-1" d="M1173.57,280.5c20.47,0,31.19-17.46,37.07-37.07,7.41-24.71-16.6-49.43-37.07-49.43s-37.07,28.95-37.07,49.43,16.6,37.07,37.07,37.07Z"/>
    <path class="cls-2" d="M1161.57,272.5c20.47,0,31.19-17.46,37.07-37.07,7.41-24.71-16.6-49.43-37.07-49.43s-37.07,28.95-37.07,49.43,16.6,37.07,37.07,37.07Z"/>
  </g>
</svg>